# xmcd
#
# Track frame offsets:
#	150
#	12821
#	28056
#	43433
#	55065
#	66994
#	79467
#	93999
#	109344
#	122335
#	139032
#	155538
#	170574
#
# Disc length: 2397 seconds
#
# Revision: 1
# Processed by: cddbd v1.5.2PL0 Copyright (c) Steve Scherf et al.
# Submitted via: audiograbber 1.83.01
#
DISCID=b1095b0d
DTITLE=Luther Wright and The Wrongs - Hearts and Lonely Hunters
DYEAR=2015
DGENRE=Indie
TTITLE0=Black Mark
TTITLE1=Old World
TTITLE2=Comeover and Jam
TTITLE3=Heart's for Breaking
TTITLE4=The One Girl
TTITLE5=Elvis
TTITLE6=Lucifer
TTITLE7=Front Porch
TTITLE8=Treasure
TTITLE9=Northern
TTITLE10=Broken Yesterdays
TTITLE11=The Parking Lot Song
TTITLE12=While I Was Gone
EXTD=
EXTT0=
EXTT1=
EXTT2=
EXTT3=
EXTT4=
EXTT5=
EXTT6=
EXTT7=
EXTT8=
EXTT9=
EXTT10=
EXTT11=
EXTT12=
PLAYORDER=
